<?xml version="1.0" encoding="UTF-8" standalone="no"?>
<!-- Created with Inkscape (http://www.inkscape.org/) -->

<svg
   version="1.1"
   id="svg7284"
   width="344"
   height="337"
   viewBox="0 0 344 337"
   sodipodi:docname="ArcticFox_1.svg"
   inkscape:version="1.2.2 (b0a8486541, 2022-12-01)"
   xmlns:inkscape="http://www.inkscape.org/namespaces/inkscape"
   xmlns:sodipodi="http://sodipodi.sourceforge.net/DTD/sodipodi-0.dtd"
   xmlns="http://www.w3.org/2000/svg"
   xmlns:svg="http://www.w3.org/2000/svg">
  <defs
     id="defs7288">
    <clipPath
       clipPathUnits="userSpaceOnUse"
       id="clipPath7912">
      <g
         id="g7916"
         transform="translate(-336.3904,-237.4568)">
        <path
           d="M 0,500 H 500 V 0 H 0 Z"
           id="path7914" />
      </g>
    </clipPath>
    <clipPath
       clipPathUnits="userSpaceOnUse"
       id="clipPath7918">
      <g
         id="g7922"
         transform="translate(-207.3841,-264.3553)">
        <path
           d="M 0,500 H 500 V 0 H 0 Z"
           id="path7920" />
      </g>
    </clipPath>
    <clipPath
       clipPathUnits="userSpaceOnUse"
       id="clipPath7924">
      <g
         id="g7928"
         transform="translate(-112.3304,-174.0535)">
        <path
           d="M 0,500 H 500 V 0 H 0 Z"
           id="path7926" />
      </g>
    </clipPath>
    <clipPath
       clipPathUnits="userSpaceOnUse"
       id="clipPath7930">
      <g
         id="g7934"
         transform="translate(-144.7527,-179.9754)">
        <path
           d="M 0,500 H 500 V 0 H 0 Z"
           id="path7932" />
      </g>
    </clipPath>
    <clipPath
       clipPathUnits="userSpaceOnUse"
       id="clipPath7936">
      <g
         id="g7940"
         transform="translate(-187.1619,-249.6888)">
        <path
           d="M 0,500 H 500 V 0 H 0 Z"
           id="path7938" />
      </g>
    </clipPath>
    <clipPath
       clipPathUnits="userSpaceOnUse"
       id="clipPath7942">
      <g
         id="g7946"
         transform="translate(-265.2683,-192.4295)">
        <path
           d="M 0,500 H 500 V 0 H 0 Z"
           id="path7944" />
      </g>
    </clipPath>
    <clipPath
       clipPathUnits="userSpaceOnUse"
       id="clipPath7948">
      <g
         id="g7952"
         transform="translate(-330.4754,-305.3089)">
        <path
           d="M 0,500 H 500 V 0 H 0 Z"
           id="path7950" />
      </g>
    </clipPath>
    <clipPath
       clipPathUnits="userSpaceOnUse"
       id="clipPath7954">
      <g
         id="g7958"
         transform="translate(-315.3846,-325.6145)">
        <path
           d="M 0,500 H 500 V 0 H 0 Z"
           id="path7956" />
      </g>
    </clipPath>
    <clipPath
       clipPathUnits="userSpaceOnUse"
       id="clipPath7960">
      <g
         id="g7964"
         transform="translate(-283.3846,-272.4666)">
        <path
           d="M 0,500 H 500 V 0 H 0 Z"
           id="path7962" />
      </g>
    </clipPath>
    <clipPath
       clipPathUnits="userSpaceOnUse"
       id="clipPath7966">
      <g
         id="g7970"
         transform="translate(-353.118,-352.449)">
        <path
           d="M 0,500 H 500 V 0 H 0 Z"
           id="path7968" />
      </g>
    </clipPath>
    <clipPath
       clipPathUnits="userSpaceOnUse"
       id="clipPath7972">
      <g
         id="g7976"
         transform="translate(-327.868,-333.6448)">
        <path
           d="M 0,500 H 500 V 0 H 0 Z"
           id="path7974" />
      </g>
    </clipPath>
    <clipPath
       clipPathUnits="userSpaceOnUse"
       id="clipPath7978">
      <g
         id="g7982"
         transform="translate(-309.6346,-318.8606)">
        <path
           d="M 0,500 H 500 V 0 H 0 Z"
           id="path7980" />
      </g>
    </clipPath>
    <clipPath
       clipPathUnits="userSpaceOnUse"
       id="clipPath7984">
      <g
         id="g7988"
         transform="translate(-293.2488,-116.1678)">
        <path
           d="M 0,500 H 500 V 0 H 0 Z"
           id="path7986" />
      </g>
    </clipPath>
    <clipPath
       clipPathUnits="userSpaceOnUse"
       id="clipPath7990">
      <g
         id="g7994"
         transform="translate(-336.576,-238.7127)">
        <path
           d="M 0,500 H 500 V 0 H 0 Z"
           id="path7992" />
      </g>
    </clipPath>
    <clipPath
       clipPathUnits="userSpaceOnUse"
       id="clipPath7996">
      <g
         id="g8000"
         transform="translate(-220.2444,-198.6971)">
        <path
           d="M 0,500 H 500 V 0 H 0 Z"
           id="path7998" />
      </g>
    </clipPath>
    <clipPath
       clipPathUnits="userSpaceOnUse"
       id="clipPath8002">
      <g
         id="g8006"
         transform="translate(-202.5388,-200.0232)">
        <path
           d="M 0,500 H 500 V 0 H 0 Z"
           id="path8004" />
      </g>
    </clipPath>
    <clipPath
       clipPathUnits="userSpaceOnUse"
       id="clipPath8008">
      <g
         id="g8012"
         transform="translate(-319.8719,-223.0379)">
        <path
           d="M 0,500 H 500 V 0 H 0 Z"
           id="path8010" />
      </g>
    </clipPath>
    <clipPath
       clipPathUnits="userSpaceOnUse"
       id="clipPath8014">
      <g
         id="g8018"
         transform="translate(-149.4934,-211.5047)">
        <path
           d="M 0,500 H 500 V 0 H 0 Z"
           id="path8016" />
      </g>
    </clipPath>
    <clipPath
       clipPathUnits="userSpaceOnUse"
       id="clipPath8020">
      <g
         id="g8024"
         transform="translate(-296.2674,-301.3133)">
        <path
           d="M 0,500 H 500 V 0 H 0 Z"
           id="path8022" />
      </g>
    </clipPath>
    <clipPath
       clipPathUnits="userSpaceOnUse"
       id="clipPath8026">
      <g
         id="g8030"
         transform="translate(-317.5515,-252.5428)">
        <path
           d="M 0,500 H 500 V 0 H 0 Z"
           id="path8028" />
      </g>
    </clipPath>
    <clipPath
       clipPathUnits="userSpaceOnUse"
       id="clipPath8032">
      <g
         id="g8036"
         transform="translate(-289.3035,-126.9363)">
        <path
           d="M 0,500 H 500 V 0 H 0 Z"
           id="path8034" />
      </g>
    </clipPath>
    <clipPath
       clipPathUnits="userSpaceOnUse"
       id="clipPath8038">
      <g
         id="g8042"
         transform="translate(-260.1863,-129.5496)">
        <path
           d="M 0,500 H 500 V 0 H 0 Z"
           id="path8040" />
      </g>
    </clipPath>
    <clipPath
       clipPathUnits="userSpaceOnUse"
       id="clipPath8044">
      <g
         id="g8048"
         transform="translate(-212.0847,-136.365)">
        <path
           d="M 0,500 H 500 V 0 H 0 Z"
           id="path8046" />
      </g>
    </clipPath>
    <clipPath
       clipPathUnits="userSpaceOnUse"
       id="clipPath8050">
      <g
         id="g8054"
         transform="translate(-254.2801,-134.3474)">
        <path
           d="M 0,500 H 500 V 0 H 0 Z"
           id="path8052" />
      </g>
    </clipPath>
    <clipPath
       clipPathUnits="userSpaceOnUse"
       id="clipPath8056">
      <g
         id="g8060"
         transform="translate(-224.22,-137.3816)">
        <path
           d="M 0,500 H 500 V 0 H 0 Z"
           id="path8058" />
      </g>
    </clipPath>
    <clipPath
       clipPathUnits="userSpaceOnUse"
       id="clipPath8062">
      <g
         id="g8066"
         transform="translate(-246.6741,-137.3816)">
        <path
           d="M 0,500 H 500 V 0 H 0 Z"
           id="path8064" />
      </g>
    </clipPath>
    <clipPath
       clipPathUnits="userSpaceOnUse"
       id="clipPath8068">
      <g
         id="g8072"
         transform="translate(-115.4397,-105.0691)">
        <path
           d="M 0,500 H 500 V 0 H 0 Z"
           id="path8070" />
      </g>
    </clipPath>
    <clipPath
       clipPathUnits="userSpaceOnUse"
       id="clipPath8074">
      <g
         id="g8078"
         transform="translate(-340.3328,-104.1502)">
        <path
           d="M 0,500 H 500 V 0 H 0 Z"
           id="path8076" />
      </g>
    </clipPath>
    <clipPath
       clipPathUnits="userSpaceOnUse"
       id="clipPath8080">
      <g
         id="g8084"
         transform="translate(-103.5091,-94.3553)">
        <path
           d="M 0,500 H 500 V 0 H 0 Z"
           id="path8082" />
      </g>
    </clipPath>
    <clipPath
       clipPathUnits="userSpaceOnUse"
       id="clipPath8086">
      <g
         id="g8090"
         transform="translate(-409.1033,-356.7307)">
        <path
           d="M 0,500 H 500 V 0 H 0 Z"
           id="path8088" />
      </g>
    </clipPath>
  </defs>
  <sodipodi:namedview
     id="namedview7286"
     pagecolor="#ffffff"
     bordercolor="#999999"
     borderopacity="1"
     inkscape:showpageshadow="0"
     inkscape:pageopacity="0"
     inkscape:pagecheckerboard="0"
     inkscape:deskcolor="#d1d1d1"
     showgrid="false"
     inkscape:zoom="0.71399998"
     inkscape:cx="333.33334"
     inkscape:cy="333.33334"
     inkscape:window-width="1366"
     inkscape:window-height="699"
     inkscape:window-x="0"
     inkscape:window-y="0"
     inkscape:window-maximized="1"
     inkscape:current-layer="g7292">
    <inkscape:page
       x="0"
       y="0"
       id="page7290"
       width="344"
       height="337" />
  </sodipodi:namedview>
  <g
     id="g7292"
     inkscape:groupmode="layer"
     inkscape:label="Page 1"
     transform="matrix(1.3333333,0,0,-1.3333333,0,666.66667)">
    <g
       id="g8134"
       transform="matrix(0.99943117,0,0,1.0000519,-111.72281,141.03259)">
      <g
         id="g7340"
         transform="translate(289.3035,126.9363)"
         clip-path="url(#clipPath8032)">
        <path
           d="m 0,0 c 0,0 0.187,4.533 0.473,10.445 l 4.658,-21.822 c -2.207,1.304 -4.28,1.376 -4.28,1.376 z m 78.442,208.517 -5.993,-0.213 c 4.574,7.554 0.638,14.362 0.638,14.362 0,0 1.33,6.171 -4.361,7.128 l -4.912,-4.281 -12.536,-10.932 c 0,0 -13.936,-1.064 -16.064,-2.021 -2.128,-0.958 -17.447,-16.49 -17.447,-16.49 L -5.036,183.055 c 0,0 4.386,-4.012 10.028,-6.639 l -14.911,-9.886 2.97,-2.879 -15.25,-6.554 2.946,-4.937 H -33.03 c 0,0 -25.579,-2.768 -30.873,-3.437 -14.405,-1.819 -35.558,-6.724 -49.812,-10.259 -12.202,-3.025 -22.87,-10.387 -30.032,-20.719 -2,-2.886 -4.165,-6.225 -6.471,-10.082 -11.829,-19.785 -24.681,-57.236 -24.894,-61.279 l 5.744,2.553 c 0,0 -4.042,-15.745 1.277,-23.405 5.32,-7.66 15.958,1.277 18.937,14.256 l 0.638,-4.893 c 0,0 6.596,17.234 7.234,31.916 0.153,3.51 0.073,7.105 -0.021,10.685 l 0.595,-0.287 c 0.859,-4.626 2.712,-10.731 6.732,-16.285 7.801,-10.78 6.95,-26.654 0,-38.222 l -0.968,-18.376 9.053,-22.129 h 18.866 c 0,0 -0.213,6.1 -8.795,9.363 l -5.674,20.71 c 0,0 -0.085,3.217 2.234,9.08 l 0.909,-0.397 2.531,-12.514 10.919,-23.121 h 17.921 c -2.083,8.228 -9.548,8.228 -9.548,8.228 0,0 -8.227,18.439 -8.369,22.554 -0.142,4.113 3.688,12.482 3.688,12.482 17.2,12.3 28.491,35.137 31.398,41.486 l 0.019,0.025 3.799,-0.67 c 1.439,-0.527 3.254,-1.171 5.271,-1.846 9.464,-4.187 23.141,-8.383 37.658,-6.658 1.088,-0.095 2.032,-0.174 2.801,-0.237 C -21.226,54.705 -20.64,49.99 -20.64,49.99 h 2.98 V 29.149 l 2.765,2.979 1.703,-35.745 2.128,-15.108 H 10 c -0.327,1.638 -0.87,2.962 -1.528,4.043 h 0.341 3.721 14.772 c -0.285,7.235 -9.864,10.424 -9.864,10.424 l -1.201,8.3 c 0,0 0.092,2.581 0.27,6.587 l -0.159,-0.524 3.178,41.141 c 0,0 1.161,13.766 6.523,17.524 3.089,2.167 5.168,5.699 6.379,8.307 l 1.649,-1.214 c 5,5.89 9.777,22.889 9.777,22.889 l 1.889,-1 2.029,13.582 1.516,-1.331 c 5.391,11.064 9.362,29.93 9.362,29.93 l 3.263,-3.121 2.694,16.455 2.27,-2.837 c 2.554,7.944 -0.142,19.15 -0.142,19.15 l 4.398,-2.27 c 0.851,6.241 -4.114,23.263 -4.114,23.263 l 2.412,1.348 c 11.206,7.092 9.007,16.596 9.007,16.596"
           style="fill:#ffffff;fill-opacity:1;fill-rule:nonzero;stroke:none"
           id="path7342" />
      </g>
      <g
         id="g7344"
         transform="translate(317.5515,252.5428)"
         clip-path="url(#clipPath8026)">
        <path
           d="m 0,0 c 0.849,-1.504 1.804,-2.896 2.862,-4.197 1.085,-1.284 2.229,-2.494 3.441,-3.631 1.214,-1.136 2.514,-2.168 3.801,-3.195 1.299,-0.991 2.649,-2.018 3.889,-2.916 l 0.002,-10e-4 -3.02,-0.793 2.412,5.106 1.154,2.444 2.031,-1.783 5.815,-5.107 -3.173,-0.639 c 2.168,4.548 3.835,9.463 5.327,14.411 0.744,2.479 1.427,4.982 2.076,7.493 0.644,2.508 1.26,5.05 1.802,7.553 l 0.768,3.558 2.624,-2.509 3.261,-3.121 -3.407,-1.138 2.697,16.453 0.738,4.5 2.847,-3.561 2.27,-2.837 -3.514,-0.646 c 0.416,1.37 0.687,2.825 0.85,4.316 0.135,1.501 0.173,3.028 0.132,4.566 -0.057,1.539 -0.185,3.086 -0.38,4.627 -0.196,1.527 -0.457,3.112 -0.783,4.547 l -0.964,4.267 3.862,-1.995 4.397,-2.27 -2.934,-1.525 c 0.173,1.56 0.016,3.505 -0.24,5.373 -0.259,1.888 -0.596,3.793 -0.994,5.696 -0.794,3.799 -1.752,7.624 -2.814,11.355 l -0.439,1.546 1.393,0.783 2.427,1.365 c 0.687,0.513 1.427,0.936 2.081,1.509 1.377,1.068 2.533,2.339 3.527,3.693 0.987,1.364 1.684,2.892 2.114,4.479 0.182,0.8 0.348,1.608 0.382,2.421 0.037,0.406 0.027,0.81 0.016,1.206 -0.014,0.196 -0.017,0.399 -0.043,0.582 -0.015,0.174 -0.054,0.41 -0.064,0.471 l 2.037,-1.561 -5.994,-0.212 -3.565,-0.126 1.77,3.186 c 0.532,0.959 1.039,1.934 1.336,2.973 0.347,1.024 0.507,2.096 0.563,3.169 0.06,1.075 -0.038,2.163 -0.266,3.226 -0.114,0.531 -0.258,1.056 -0.432,1.566 -0.165,0.484 -0.413,1.057 -0.582,1.375 l -0.296,0.555 0.052,0.778 c 0.019,0.293 0.07,0.593 0.081,0.877 -0.026,0.271 0.017,0.568 -0.05,0.813 -0.047,0.531 -0.244,0.971 -0.482,1.387 -0.246,0.41 -0.589,0.778 -1.025,1.088 -0.223,0.149 -0.452,0.296 -0.702,0.413 -0.219,0.119 -0.57,0.237 -0.666,0.267 l 1.792,0.44 -17.449,-15.21 -0.5,-0.436 -0.668,-0.053 C 19.872,86.708 16.536,86.405 13.251,86.023 11.63,85.824 9.935,85.619 8.486,85.305 7.591,85.088 7.891,85.189 7.085,84.581 6.498,84.104 5.878,83.562 5.272,83.012 2.835,80.808 0.435,78.466 -1.95,76.134 -4.335,73.795 -6.707,71.429 -9.055,69.056 l -0.196,-0.197 -0.237,-0.136 -22.804,-13.011 0.36,3.21 0.002,-10e-4 c 2.281,-1.509 4.668,-3.125 7.057,-4.485 2.388,-1.401 4.852,-2.583 7.372,-3.348 0.635,-0.195 1.252,-0.314 1.914,-0.449 0.679,-0.09 1.359,-0.23 2.038,-0.284 1.359,-0.132 2.728,-0.181 4.07,-0.054 1.335,0.147 2.659,0.44 3.835,1.073 1.184,0.602 2.216,1.611 2.574,3.096 0.319,-1.501 -0.439,-3.217 -1.611,-4.341 -1.168,-1.167 -2.648,-1.989 -4.179,-2.5 -1.535,-0.539 -3.127,-0.801 -4.712,-0.918 -0.796,-0.071 -1.585,-0.087 -2.377,-0.072 -0.798,0.045 -1.652,0.097 -2.452,0.227 -3.249,0.501 -6.239,1.739 -8.944,3.294 -1.349,0.79 -2.643,1.654 -3.855,2.618 -1.218,0.981 -2.35,1.959 -3.434,3.196 l -0.003,0.001 -2.037,1.841 2.399,1.37 22.799,13.018 -0.432,-0.333 c 2.369,2.395 4.745,4.766 7.148,7.125 2.41,2.357 4.81,4.702 7.347,6.998 0.636,0.577 1.277,1.141 1.991,1.722 l 0.557,0.436 c 0.171,0.141 0.543,0.363 0.815,0.523 0.296,0.186 0.607,0.247 0.914,0.362 0.283,0.084 0.489,0.122 0.737,0.183 1.832,0.393 3.473,0.577 5.178,0.791 3.378,0.394 6.723,0.698 10.098,0.968 l -1.168,-0.49 17.445,15.216 0.804,0.701 0.989,-0.261 c 0.366,-0.096 0.551,-0.166 0.803,-0.261 0.234,-0.09 0.462,-0.19 0.683,-0.299 0.446,-0.213 0.87,-0.474 1.283,-0.758 0.819,-0.581 1.564,-1.347 2.114,-2.253 0.543,-0.901 0.931,-1.927 1.041,-2.931 0.104,-0.51 0.067,-0.992 0.088,-1.488 -0.017,-0.483 -0.084,-0.947 -0.132,-1.42 l -0.244,1.333 c 0.424,-0.785 0.651,-1.374 0.9,-2.07 0.232,-0.674 0.42,-1.357 0.569,-2.05 0.297,-1.385 0.425,-2.812 0.35,-4.237 -0.069,-1.421 -0.292,-2.849 -0.741,-4.2 -0.401,-1.371 -1.045,-2.637 -1.735,-3.858 l -1.796,3.06 5.992,0.214 1.701,0.06 0.336,-1.622 c 0.084,-0.405 0.112,-0.638 0.145,-0.937 0.038,-0.287 0.045,-0.559 0.063,-0.838 0.018,-0.551 0.027,-1.099 -0.018,-1.639 -0.051,-1.087 -0.26,-2.147 -0.506,-3.196 -0.557,-2.077 -1.476,-4.055 -2.711,-5.774 -1.24,-1.708 -2.68,-3.257 -4.302,-4.523 -0.779,-0.676 -1.688,-1.219 -2.532,-1.826 l -2.537,-1.429 0.954,2.329 c 1.104,-3.874 2.068,-7.725 2.894,-11.666 0.412,-1.967 0.766,-3.957 1.045,-5.986 0.261,-2.043 0.493,-4.07 0.241,-6.45 l -0.307,-2.881 -2.628,1.356 -4.397,2.269 2.897,2.272 c 0.388,-1.71 0.645,-3.31 0.863,-4.981 0.21,-1.656 0.349,-3.326 0.411,-5.008 0.046,-1.686 0.007,-3.385 -0.147,-5.097 -0.186,-1.714 -0.497,-3.44 -1.024,-5.157 l -1.116,-3.642 -2.397,2.996 -2.27,2.837 3.585,0.939 -2.693,-16.455 -0.622,-3.802 -2.785,2.663 -3.263,3.12 3.392,1.049 C 31.829,11.292 31.211,8.745 30.554,6.18 29.893,3.622 29.198,1.071 28.437,-1.466 26.905,-6.538 25.213,-11.579 22.874,-16.495 l -1.148,-2.415 -2.025,1.777 -5.816,5.106 3.185,0.661 -2.411,-5.108 -1.046,-2.214 -1.974,1.422 -0.003,0.002 c -0.782,0.572 -1.433,1.122 -2.087,1.741 -0.658,0.595 -1.275,1.234 -1.869,1.89 -1.207,1.295 -2.277,2.717 -3.297,4.154 -1.019,1.441 -1.901,2.98 -2.669,4.555 C 0.951,-3.342 0.384,-1.673 0,0"
           style="fill:#022e43;fill-opacity:1;fill-rule:nonzero;stroke:none"
           id="path7346" />
      </g>
      <g
         id="g7348"
         transform="translate(296.2674,301.3133)"
         clip-path="url(#clipPath8020)">
        <path
           d="m 0,0 -14.844,-10.137 -0.455,3.535 3.972,-1.419 4.793,-1.711 -4.676,-2.01 -17.164,-7.376 0.568,3.306 5.674,-5.248 3.679,-3.403 -5.024,-0.065 c -8.84,-0.116 -17.743,-0.521 -26.59,-1.134 -4.429,-0.304 -8.848,-0.695 -13.258,-1.147 -4.418,-0.458 -8.8,-0.97 -13.154,-1.677 -8.729,-1.412 -17.433,-3.24 -26.104,-5.188 -4.336,-0.978 -8.666,-1.997 -12.989,-3.046 -2.139,-0.53 -4.377,-1.041 -6.401,-1.617 -2.051,-0.613 -4.087,-1.297 -6.043,-2.174 -7.866,-3.405 -14.813,-8.891 -19.953,-15.752 -1.294,-1.675 -2.426,-3.631 -3.632,-5.458 l -3.571,-5.564 c -2.243,-3.764 -4.321,-7.635 -6.227,-11.625 -3.871,-7.94 -7.258,-16.153 -10.468,-24.419 -1.577,-4.145 -3.128,-8.303 -4.554,-12.495 -0.714,-2.094 -1.419,-4.194 -2.067,-6.295 -0.342,-1.052 -0.626,-2.098 -0.934,-3.146 -0.276,-1.014 -0.555,-2.141 -0.657,-2.833 l -2.809,1.933 5.744,2.553 3.669,1.631 -0.919,-3.957 c -0.95,-4.084 -1.505,-8.481 -1.376,-12.659 0.065,-2.093 0.318,-4.17 0.926,-6.037 0.308,-0.924 0.662,-1.828 1.159,-2.592 0.441,-0.828 1.016,-1.432 1.619,-1.849 1.171,-0.837 2.697,-0.752 4.334,0.047 1.615,0.799 3.116,2.192 4.393,3.751 2.562,3.165 4.327,7.089 5.272,11.135 l 2.507,10.739 1.425,-10.927 0.637,-4.88 10e-4,-0.014 -3.851,0.456 c 1.976,5.774 3.676,11.772 5.02,17.75 0.664,2.997 1.219,6.011 1.601,9.028 0.215,1.509 0.332,3.014 0.452,4.522 0.069,1.527 0.137,3.055 0.147,4.6 0.145,6.169 -0.209,12.476 0.419,18.849 0.319,3.177 0.882,6.377 1.973,9.422 1.076,3.036 2.746,5.903 5.023,8.095 -3.396,-5.384 -4.078,-11.582 -4.141,-17.676 -0.054,-6.133 0.496,-12.341 0.649,-18.682 0.038,-1.585 0.016,-3.184 -0.01,-4.785 -0.077,-1.614 -0.157,-3.232 -0.335,-4.829 -0.348,-3.196 -0.878,-6.352 -1.537,-9.47 -0.691,-3.111 -1.473,-6.193 -2.41,-9.226 -0.931,-3.044 -1.906,-6.028 -3.115,-9.027 l -2.87,-7.124 -0.981,7.58 -0.002,0.013 -0.636,4.88 3.933,-0.188 c -1.083,-4.598 -3.036,-9.005 -6.073,-12.772 -1.539,-1.859 -3.335,-3.607 -5.716,-4.805 -1.189,-0.586 -2.555,-1.019 -4.051,-1.052 -1.49,-0.06 -3.072,0.431 -4.297,1.275 -1.23,0.839 -2.169,1.952 -2.789,3.073 -0.708,1.11 -1.172,2.295 -1.563,3.473 -0.762,2.373 -1.032,4.763 -1.111,7.107 -0.128,4.716 0.441,9.222 1.499,13.795 l 2.75,-2.326 -5.745,-2.552 -3.217,-1.43 0.408,3.362 c 0.184,1.522 0.504,2.548 0.795,3.687 0.319,1.091 0.622,2.197 0.969,3.264 0.665,2.159 1.379,4.286 2.104,6.411 1.446,4.249 3.011,8.445 4.604,12.632 3.244,8.352 6.661,16.64 10.603,24.732 1.938,4.054 4.079,8.048 6.399,11.94 l 3.651,5.691 c 1.251,1.891 2.349,3.808 3.779,5.669 5.553,7.412 13.06,13.341 21.561,17.021 2.114,0.945 4.313,1.688 6.53,2.348 2.265,0.641 4.376,1.118 6.563,1.66 4.342,1.054 8.691,2.077 13.051,3.061 8.724,1.959 17.48,3.8 26.354,5.236 4.447,0.722 8.924,1.245 13.373,1.706 4.459,0.456 8.922,0.851 13.388,1.158 8.94,0.618 17.858,1.026 26.847,1.144 l -1.346,-3.469 -5.673,5.248 -2.26,2.091 2.828,1.216 17.163,7.376 0.117,-3.722 -3.972,1.419 -3.697,1.321 3.242,2.214 14.844,10.137 z"
           style="fill:#022e43;fill-opacity:1;fill-rule:nonzero;stroke:none"
           id="path7350" />
      </g>
      <g
         id="g7352"
         transform="translate(149.4934,211.5047)"
         clip-path="url(#clipPath8014)">
        <path
           d="m 0,0 c 0.002,-1.208 0.102,-2.573 0.258,-3.862 0.149,-1.307 0.368,-2.608 0.636,-3.896 0.543,-2.576 1.307,-5.102 2.307,-7.518 0.999,-2.415 2.227,-4.732 3.739,-6.835 l 1.173,-1.755 0.602,-0.912 0.522,-0.957 c 0.732,-1.261 1.284,-2.606 1.837,-3.947 1.993,-5.445 2.595,-11.326 1.891,-17.008 -0.637,-5.7 -2.522,-11.228 -5.417,-16.206 l 0.283,0.924 -0.968,-18.376 -0.146,0.863 9.053,-22.128 -1.851,1.242 h 18.866 l -1.999,-2.069 c 0,-0.041 -0.01,0.103 -0.027,0.178 -0.011,0.089 -0.034,0.191 -0.057,0.29 -0.042,0.2 -0.103,0.41 -0.172,0.615 -0.139,0.412 -0.317,0.825 -0.538,1.22 -0.432,0.795 -1.013,1.53 -1.682,2.196 -0.677,0.664 -1.468,1.237 -2.31,1.753 -0.419,0.259 -0.881,0.469 -1.317,0.71 l -1.403,0.6 -0.964,0.411 -0.254,0.93 -5.674,20.71 -0.067,0.241 -0.004,0.23 c -0.004,0.214 0.005,0.327 0.009,0.467 l 0.025,0.392 c 0.018,0.255 0.041,0.505 0.075,0.743 0.053,0.49 0.138,0.955 0.219,1.426 0.174,0.932 0.396,1.839 0.645,2.732 0.519,1.777 1.122,3.512 1.844,5.182 1.415,3.356 3.157,6.525 5.075,9.556 1.911,3.03 4.028,5.946 6.221,8.712 2.175,2.791 4.425,5.495 6.638,8.2 2.224,2.7 4.4,5.397 6.426,8.168 2.037,2.762 3.898,5.613 5.369,8.619 1.481,2.997 2.605,6.134 3.227,9.379 0.575,3.256 0.652,6.586 0.407,9.917 l -0.47,6.37 4.012,-4.923 3.119,-3.828 10e-4,-0.002 -3.362,-0.414 1.545,3.842 c 0.499,1.317 0.996,2.648 1.416,4.014 0.418,1.368 0.701,2.766 0.957,4.197 0.225,1.433 0.307,2.89 0.305,4.404 0.573,-1.386 1.011,-2.876 1.217,-4.402 0.224,-1.525 0.3,-3.086 0.22,-4.634 -0.063,-1.552 -0.225,-3.108 -0.56,-4.627 -0.335,-1.538 -0.765,-2.975 -1.478,-4.492 l -1.352,-2.88 -2.009,2.466 -10e-4,10e-4 -3.119,3.828 3.541,1.447 c 0.276,-3.654 0.192,-7.364 -0.456,-11.017 -0.695,-3.642 -1.957,-7.152 -3.578,-10.426 -1.612,-3.289 -3.604,-6.325 -5.72,-9.198 -2.109,-2.882 -4.335,-5.638 -6.563,-8.344 -2.222,-2.717 -4.452,-5.398 -6.584,-8.132 -2.157,-2.723 -4.159,-5.485 -5.985,-8.379 -1.827,-2.883 -3.468,-5.877 -4.774,-8.977 -0.669,-1.545 -1.214,-3.125 -1.679,-4.709 -0.22,-0.794 -0.414,-1.589 -0.562,-2.378 -0.066,-0.393 -0.141,-0.789 -0.181,-1.17 -0.027,-0.195 -0.044,-0.381 -0.057,-0.563 -0.018,-0.169 -0.021,-0.398 -0.025,-0.452 l -0.069,0.47 5.673,-20.709 -1.218,1.34 1.702,-0.726 c 0.551,-0.296 1.114,-0.56 1.652,-0.891 1.077,-0.656 2.119,-1.411 3.051,-2.324 0.926,-0.918 1.758,-1.964 2.401,-3.148 0.326,-0.587 0.598,-1.211 0.818,-1.865 0.11,-0.327 0.206,-0.659 0.282,-1.01 0.039,-0.174 0.077,-0.348 0.104,-0.539 0.031,-0.201 0.054,-0.336 0.073,-0.658 l 0.122,-2.07 H 32.785 13.919 12.577 l -0.509,1.243 -9.053,22.128 -0.17,0.415 0.024,0.448 0.967,18.375 0.03,0.499 0.254,0.427 c 2.643,4.436 4.424,9.445 5.055,14.606 0.701,5.148 0.194,10.446 -1.511,15.284 -0.48,1.186 -0.949,2.383 -1.582,3.493 l -0.447,0.848 -0.52,0.801 -1.085,1.665 c -1.65,2.356 -2.97,4.915 -4.029,7.558 -1.06,2.643 -1.853,5.379 -2.405,8.154 -0.273,1.389 -0.492,2.787 -0.638,4.197 -0.151,1.424 -0.246,2.79 -0.231,4.314 z"
           style="fill:#022e43;fill-opacity:1;fill-rule:nonzero;stroke:none"
           id="path7354" />
      </g>
      <g
         id="g7356"
         transform="translate(319.8719,223.0379)"
         clip-path="url(#clipPath8008)">
        <path
           d="m 0,0 c -0.415,-3.614 -1.345,-7.183 -2.602,-10.633 -1.256,-3.457 -2.902,-6.789 -4.872,-9.948 -1.935,-3.185 -4.346,-6.103 -7.062,-8.715 l -2.096,-1.906 -2.281,-1.69 c -0.382,-0.279 -0.768,-0.553 -1.158,-0.818 l -1.233,-0.71 c -0.817,-0.477 -1.642,-0.94 -2.475,-1.382 l -0.001,-10e-4 1.022,1.438 c -0.821,-5.111 -1.598,-10.247 -2.313,-15.377 -0.708,-5.129 -1.385,-10.276 -1.812,-15.371 -0.397,-5.144 -0.684,-10.331 -0.957,-15.513 l -0.73,-15.559 -0.006,0.252 0.851,-10 -1.935,1.829 c 0.482,-0.026 0.769,-0.069 1.128,-0.13 0.341,-0.056 0.671,-0.136 1,-0.218 0.655,-0.174 1.294,-0.402 1.914,-0.678 1.235,-0.557 2.406,-1.321 3.38,-2.294 0.959,-0.972 1.816,-2.078 2.372,-3.295 0.34,-0.589 0.51,-1.222 0.76,-1.836 0.2,-0.622 0.335,-1.252 0.499,-1.879 l 0.626,-2.392 h -2.587 -21.065 -1.738 l -0.242,1.722 -2.128,15.106 -0.013,0.092 -0.004,0.092 -1.703,35.746 3.464,-1.266 -2.766,-2.979 -3.466,-3.732 v 5.093 20.841 l 2,-2 h -2.978 -1.786 l -0.199,1.753 c -0.436,2.494 -0.439,4.815 -0.262,7.216 0.19,2.378 0.64,4.743 1.334,7.035 0.64,2.304 1.693,4.504 2.932,6.539 1.259,2.032 2.921,3.811 4.79,5.214 -0.929,-2.181 -1.855,-4.18 -2.461,-6.311 -0.648,-2.098 -1.173,-4.195 -1.524,-6.334 -0.346,-2.137 -0.579,-4.285 -0.708,-6.446 -0.127,-2.137 -0.148,-4.383 -0.132,-6.417 v -10e-4 l -1.984,1.752 h 2.978 2 v -2 -20.841 l -3.465,1.361 2.765,2.979 3.238,3.486 0.226,-4.752 1.702,-35.746 -0.017,0.184 2.128,-15.107 -1.981,1.721 h 21.065 l -1.961,-2.392 c -0.132,0.468 -0.23,0.953 -0.377,1.411 -0.189,0.433 -0.299,0.915 -0.542,1.308 -0.381,0.86 -0.961,1.563 -1.58,2.208 -0.631,0.639 -1.397,1.135 -2.228,1.512 -0.417,0.185 -0.85,0.341 -1.294,0.459 -0.221,0.053 -0.443,0.109 -0.663,0.144 -0.2,0.04 -0.477,0.067 -0.561,0.074 l -1.794,0.166 -0.142,1.665 -0.852,10 -0.01,0.13 0.005,0.121 0.732,15.602 c 0.274,5.202 0.562,10.397 0.965,15.622 0.441,5.267 1.124,10.435 1.837,15.606 0.721,5.168 1.499,10.312 2.327,15.468 l 0.142,0.88 0.88,0.558 0.001,10e-4 c 0.707,0.493 1.422,0.965 2.145,1.422 l 1.079,0.692 1.014,0.789 2.049,1.545 1.932,1.7 c 2.542,2.302 4.936,4.821 7.045,7.605 2.137,2.759 4.069,5.715 5.812,8.813 1.714,3.111 3.3,6.332 4.607,9.717"
           style="fill:#022e43;fill-opacity:1;fill-rule:nonzero;stroke:none"
           id="path7358" />
      </g>
      <g
         id="g7360"
         transform="translate(202.5388,200.0232)"
         clip-path="url(#clipPath8002)">
        <path
           d="m 0,0 4.208,-5 3.23,6.489 2.185,-3.268 3.522,3.268 c 0,0 25.656,-18.077 53.467,-13.24"
           style="fill:none;stroke:#022e43;stroke-width:4;stroke-linecap:butt;stroke-linejoin:miter;stroke-miterlimit:10;stroke-dasharray:none;stroke-opacity:1"
           id="path7362" />
      </g>
      <g
         id="g7364"
         transform="translate(220.2444,198.6971)"
         clip-path="url(#clipPath7996)">
        <path
           d="m 0,0 c 0,0 -12.044,-28.801 -32.15,-43.179 0,0 -3.83,-8.369 -3.688,-12.482 0.142,-4.114 8.369,-22.554 8.369,-22.554 0,0 7.465,0 9.548,-8.227 h -17.921 l -10.919,23.121 -2.996,14.811"
           style="fill:none;stroke:#022e43;stroke-width:4;stroke-linecap:butt;stroke-linejoin:miter;stroke-miterlimit:10;stroke-dasharray:none;stroke-opacity:1"
           id="path7366" />
      </g>
      <g
         id="g7368"
         transform="translate(336.576,238.7127)"
         clip-path="url(#clipPath7990)">
        <path
           d="m 0,0 -2.235,-13.547 -2.128,1.136 c 0,0 1.702,-11.916 -16.455,-30.215 0,0 -4.397,-3.404 -6.667,-16.312 -2.27,-12.909 -3.546,-48.796 -3.546,-48.796 l 1.201,-8.3 c 0,0 9.579,-3.19 9.863,-10.424 h -18.492"
           style="fill:none;stroke:#022e43;stroke-width:4;stroke-linecap:butt;stroke-linejoin:miter;stroke-miterlimit:10;stroke-dasharray:none;stroke-opacity:1"
           id="path7370" />
      </g>
      <g
         id="g7372"
         transform="translate(293.2488,116.1678)"
         clip-path="url(#clipPath7984)">
        <path
           d="M 0,0 -3.363,23.437"
           style="fill:none;stroke:#022e43;stroke-width:4;stroke-linecap:butt;stroke-linejoin:miter;stroke-miterlimit:10;stroke-dasharray:none;stroke-opacity:1"
           id="path7374" />
      </g>
      <g
         id="g7376"
         transform="translate(309.6346,318.8606)"
         clip-path="url(#clipPath7978)">
        <path
           d="m 0,0 c -0.632,-1.29 -1.596,-2.411 -2.585,-3.466 -1.005,-1.051 -2.084,-2.029 -3.194,-2.964 -1.112,-0.935 -2.257,-1.83 -3.426,-2.693 -1.178,-0.866 -2.345,-1.691 -3.608,-2.51 l 0.347,3.372 c 0.703,-0.728 1.714,-1.51 2.685,-2.132 0.996,-0.639 2.061,-1.168 3.185,-1.552 1.124,-0.371 2.315,-0.592 3.531,-0.546 1.217,0.033 2.448,0.354 3.604,0.915 -0.969,-0.837 -2.136,-1.516 -3.434,-1.901 -1.293,-0.398 -2.686,-0.515 -4.064,-0.435 -1.377,0.092 -2.745,0.368 -4.064,0.788 -0.661,0.209 -1.312,0.451 -1.953,0.727 -0.656,0.29 -1.241,0.554 -1.948,0.98 l -2.637,2.317 2.984,1.057 c 1.271,0.449 2.596,0.979 3.878,1.522 1.289,0.547 2.563,1.13 3.816,1.758 1.251,0.63 2.481,1.305 3.657,2.065 C -2.061,-1.927 -0.91,-1.102 0,0"
           style="fill:#022e43;fill-opacity:1;fill-rule:nonzero;stroke:none"
           id="path7378" />
      </g>
      <g
         id="g7380"
         transform="translate(327.868,333.6448)"
         clip-path="url(#clipPath7972)">
        <path
           d="M 0,0 C 0,0 1.596,3.83 7.395,4.255 7.395,4.255 6.543,0.266 0,0"
           style="fill:#022e43;fill-opacity:1;fill-rule:nonzero;stroke:none"
           id="path7382" />
      </g>
      <g
         id="g7384"
         transform="translate(353.118,352.449)"
         clip-path="url(#clipPath7966)">
        <path
           d="m 0,0 2.677,-2.687 6.595,-0.159 c 0,0 1.331,6.17 -4.361,7.128 z"
           style="fill:#022e43;fill-opacity:1;fill-rule:nonzero;stroke:none"
           id="path7386" />
      </g>
      <g
         id="g7388"
         transform="translate(283.3846,272.4666)"
         clip-path="url(#clipPath7960)">
        <path
           d="m 0,0 c 1.007,-2.716 2.255,-5.332 3.716,-7.772 1.466,-2.416 3.2,-4.72 5.28,-6.255 l -2.415,-0.635 1.777,5.185 v 0 l 1.434,3.426 1.338,-3.264 c 0.688,-1.679 1.492,-3.399 2.324,-5.067 0.839,-1.674 1.734,-3.322 2.682,-4.943 1.91,-3.231 4.053,-6.342 6.641,-9.119 -2.931,2.412 -5.517,5.263 -7.88,8.274 -1.176,1.51 -2.305,3.061 -3.383,4.649 -1.079,1.599 -2.105,3.194 -3.089,4.91 l 2.771,0.161 v 0 l -1.777,-5.185 -0.75,-2.185 -1.666,1.55 v 0.001 C 4.782,-13.908 3.456,-11.173 2.369,-8.432 1.31,-5.674 0.526,-2.854 0,0"
           style="fill:#022e43;fill-opacity:1;fill-rule:nonzero;stroke:none"
           id="path7390" />
      </g>
      <g
         id="g7392"
         transform="translate(315.3846,325.6145)"
         clip-path="url(#clipPath7954)">
        <path
           d="m 0,0 c -0.663,-3.06 -1.14,-6.153 -1.388,-9.221 v 0 l -1.493,1.044 3.852,2.283 v 0 l 1.46,0.855 0.047,-1.633 c 0.077,-2.656 0.289,-5.359 0.606,-8.028 0.33,-2.673 0.779,-5.338 1.508,-7.949 -1.045,2.503 -1.828,5.123 -2.491,7.767 -0.653,2.653 -1.198,5.314 -1.617,8.046 L 1.991,-7.614 H 1.99 l -3.85,-2.283 -2.048,-1.214 0.554,2.258 v 10e-4 C -2.429,-5.798 -1.297,-2.856 0,0"
           style="fill:#022e43;fill-opacity:1;fill-rule:nonzero;stroke:none"
           id="path7394" />
      </g>
      <g
         id="g7396"
         transform="translate(330.4754,305.3089)"
         clip-path="url(#clipPath7948)">
        <path
           d="m 0,0 4.781,-8.058 -1.818,10e-4 2.814,6.13 0.857,1.865 0.915,-1.776 c 2.517,-4.883 5.161,-9.731 8.026,-14.449 -3.417,4.344 -6.632,8.845 -9.751,13.437 l 1.772,0.089 -2.816,-6.13 -1.052,-2.294 -0.766,2.296 z"
           style="fill:#022e43;fill-opacity:1;fill-rule:nonzero;stroke:none"
           id="path7398" />
      </g>
      <g
         id="g7400"
         transform="translate(265.2683,192.4295)"
         clip-path="url(#clipPath7942)">
        <path
           d="m 0,0 c 0.85,2.226 1.726,4.443 2.639,6.652 0.92,2.212 1.845,4.405 2.961,6.611 L 7.352,11.028 1.426,8.955 -2.005,7.754 l 1.524,3.123 c 0.541,1.109 1.094,2.147 1.67,3.198 0.575,1.045 1.167,2.076 1.779,3.095 1.217,2.04 2.515,4.025 3.888,5.941 C 5.918,20.947 5.076,18.757 4.329,16.54 3.952,15.433 3.597,14.319 3.264,13.203 2.933,12.092 2.61,10.954 2.343,9.863 l -1.907,1.923 5.925,2.074 4.954,1.734 -3.201,-3.968 C 6.674,9.842 5.302,7.886 3.957,5.937 2.612,3.981 1.295,1.999 0,0"
           style="fill:#022e43;fill-opacity:1;fill-rule:nonzero;stroke:none"
           id="path7402" />
      </g>
      <g
         id="g7404"
         transform="translate(187.1619,249.6888)"
         clip-path="url(#clipPath7936)">
        <path
           d="m 0,0 c 2.399,-1.357 4.653,-3.004 6.741,-4.882 1.051,-0.935 2.03,-1.96 2.964,-3.045 0.939,-1.083 1.765,-2.279 2.536,-3.535 l 0.002,-0.003 -2.854,-0.646 v 4.886 0.003 l 0.045,6.761 2.745,-5.996 c 0.518,-1.132 0.978,-2.237 1.43,-3.366 0.447,-1.127 0.876,-2.258 1.267,-3.402 0.779,-2.285 1.474,-4.622 1.791,-6.997 -0.804,2.253 -1.941,4.335 -3.151,6.364 -0.605,1.015 -1.246,2.009 -1.9,2.99 -0.653,0.976 -1.333,1.96 -2.016,2.879 l 2.789,0.767 v -0.003 -4.886 -7.049 l -2.854,6.404 -10e-4,0.003 C 9.07,-11.563 8.541,-10.367 7.869,-9.227 7.203,-8.087 6.47,-6.963 5.64,-5.901 3.996,-3.765 2.11,-1.764 0,0"
           style="fill:#022e43;fill-opacity:1;fill-rule:nonzero;stroke:none"
           id="path7406" />
      </g>
      <g
         id="g7408"
         transform="translate(144.7527,179.9754)"
         clip-path="url(#clipPath7930)">
        <path
           d="m 0,0 c 0.486,2.393 0.94,4.811 0.984,7.237 0.063,2.425 -0.227,4.84 -0.886,7.221 -0.643,2.379 -1.556,4.789 -1.908,7.329 -0.359,2.537 -0.167,5.093 0.303,7.556 -0.256,-2.499 -0.219,-5.027 0.34,-7.436 0.549,-2.415 1.631,-4.656 2.511,-7.054 C 2.24,12.457 2.79,9.87 2.944,7.275 3.121,4.671 2.867,2.095 2.572,-0.467 Z"
           style="fill:#022e43;fill-opacity:1;fill-rule:nonzero;stroke:none"
           id="path7410" />
      </g>
      <g
         id="g7412"
         transform="translate(112.3304,174.0535)"
         clip-path="url(#clipPath7924)">
        <path
           d="m 0,0 c 1.175,2.459 2.424,4.769 3.743,7.086 1.325,2.303 2.703,4.57 4.201,6.762 1.504,2.185 3.049,4.341 4.797,6.337 1.739,1.994 3.606,3.89 5.72,5.45 -1.899,-1.816 -3.479,-3.9 -4.922,-6.054 C 12.088,17.428 10.853,15.135 9.667,12.832 8.487,10.524 7.431,8.151 6.436,5.762 5.452,3.378 4.511,0.928 3.722,-1.467 Z"
           style="fill:#022e43;fill-opacity:1;fill-rule:nonzero;stroke:none"
           id="path7414" />
      </g>
      <g
         id="g7416"
         transform="translate(207.3841,264.3553)"
         clip-path="url(#clipPath7918)">
        <path
           d="m 0,0 c 2.42,1.836 4.978,3.501 7.604,5.058 2.629,1.55 5.347,2.967 8.138,4.252 2.784,1.302 5.668,2.411 8.619,3.367 2.944,0.99 6.001,1.657 9.098,2.224 l 0.425,-3.977 C 30.971,10.711 28.026,10.41 25.123,9.775 22.215,9.175 19.317,8.416 16.477,7.45 13.63,6.501 10.818,5.41 8.064,4.17 5.313,2.924 2.605,1.559 0,0"
           style="fill:#022e43;fill-opacity:1;fill-rule:nonzero;stroke:none"
           id="path7418" />
      </g>
      <g
         id="g7420"
         transform="translate(336.3904,237.4568)"
         clip-path="url(#clipPath7912)">
        <path
           d="M 0,0 C 0.734,2.54 1.319,5.346 1.761,8.085 2.208,10.848 2.5,13.642 2.659,16.45 2.832,19.26 2.82,22.084 2.646,24.908 2.518,27.742 2.067,30.545 1.55,33.355 2.431,30.647 3.261,27.886 3.77,25.054 4.324,22.23 4.719,19.362 4.924,16.476 5.144,13.589 5.226,10.684 5.145,7.774 5.058,4.844 4.864,1.996 4.41,-1.034 Z"
           style="fill:#022e43;fill-opacity:1;fill-rule:nonzero;stroke:none"
           id="path7422" />
      </g>
    </g>
  </g>
</svg>
